<svg width="20" height="20" fill="none" xmlns="http://www.w3.org/2000/svg"><path d="M10 .3125C4.64813.3125.3125 4.64875.3125 10c0 5.3512 4.33625 9.6875 9.6875 9.6875 5.3519 0 9.6875-4.3363 9.6875-9.6875 0-5.35125-4.3363-9.6875-9.6875-9.6875zm4.7581 6.63688l-1.59 7.49252c-.1175.5312-.4337.66-.875.41l-2.42185-1.785-1.16813 1.125c-.12874.1287-.23812.2381-.48812.2381l.17188-2.465L12.875 7.91c.1956-.17188-.0431-.26938-.3013-.0975l-5.54682 3.4919-2.39063-.7463c-.51937-.1637-.53125-.5194.10938-.76935l9.33997-3.60187c.4338-.15625.8125.10562.6719.76187l.0006.00063z" fill="#fff"/></svg>