<svg width="14" height="17" fill="none" xmlns="http://www.w3.org/2000/svg"><path d="M3.11111 7.61108h1.55556v1.66667H3.11111V7.61108zM14 3.44442V15.1111c0 .9167-.7 1.6667-1.5556 1.6667H1.55556c-.41256 0-.808225-.1756-1.099948-.4882C.163888 15.977 0 15.5531 0 15.1111L.0077778 3.44442c0-.91667.6844442-1.66667 1.5477822-1.66667h.77777V.111084h1.55556V1.77775h6.22221V.111084h1.5556V1.77775h.7777c.8556 0 1.5556.75 1.5556 1.66667zM1.55556 5.11108H12.4444V3.44442H1.55556v1.66666zM12.4444 15.1111V6.77775H1.55556v8.33335H12.4444zM9.33333 9.27775h1.55557V7.61108H9.33333v1.66667zm-3.11111 0h1.55556V7.61108H6.22222v1.66667z" fill="#7688A4"/></svg>