<svg width="24" height="24" fill="none" xmlns="http://www.w3.org/2000/svg"><path d="M9.75 3h3.1289c.3977.00006.7791.15804 1.0603.43922l6.6216 6.62158c.2812.2812.4391.6626.4392 1.0603V20.25c0 .5967-.2371 1.169-.659 1.591-.422.4219-.9943.659-1.591.659H9c-.59674 0-1.16903-.2371-1.59099-.659-.42196-.422-.65901-.9943-.65901-1.591v-6" stroke="#9C9C9C" stroke-linecap="round" stroke-linejoin="round"/><path d="M13.5 3.375V9c0 .39782.158.77936.4393 1.0607.2813.2813.6629.4393 1.0607.4393h5.625" stroke="#9C9C9C" stroke-linecap="round" stroke-linejoin="round"/><path d="M7.5 3.75v7.125c.00195.1483-.02581.2954-.08166.4328-.05584.1374-.13863.2622-.24349.367-.10486.1049-.22966.1877-.36703.2435-.13737.0559-.28454.0837-.43282.0817-.5625 0-1.125-.4266-1.125-1.125v-6.75c0-1.43391.77672-2.625 2.25-2.625s2.25 1.1625 2.25 2.59594v6.50386c0 2.0157-1.30406 3.6502-3.375 3.6502C4.30406 14.25 3 12.6159 3 10.5998V6.75" stroke="#9C9C9C" stroke-miterlimit="10" stroke-linecap="round"/></svg>