<svg width="171" height="13" fill="none" xmlns="http://www.w3.org/2000/svg"><path d="M.52 12c-.106667 0-.202667-.0373-.288-.112-.074667-.0853-.112-.1813-.112-.288V1.2c0-.11733.037333-.213334.112-.288C.317333.837333.413333.799999.52.799999h1.696c.26667 0 .448.101334.544.304001l3.904 6.144V1.2c0-.11733.03733-.213334.112-.288.08533-.074667.18133-.112001.288-.112001h1.92c.11733 0 .21333.037334.288.112001.07467.074666.112.17067.112.288v10.384c0 .1173-.03733.2187-.112.304-.07467.0747-.17067.112-.288.112H7.272c-.23467 0-.41067-.1013-.528-.304L2.84 5.776V11.6c0 .1067-.03733.2027-.112.288-.07467.0747-.17067.112-.288.112H.52zm10.46 0c-.0853 0-.1653-.032-.24-.096-.064-.0747-.096-.1547-.096-.24 0-.064.0053-.112.016-.144l3.76-10.272c.032-.128.1013-.23467.208-.320001.1067-.085333.2453-.128.416-.128h2.368c.1707 0 .3093.042667.416.128.1067.085331.176.192001.208.320001L21.78 11.52l.032.144c0 .0853-.0373.1653-.112.24-.064.064-.144.096-.24.096h-1.968c-.256 0-.4267-.112-.512-.336l-.624-1.632h-4.272l-.608 1.632c-.0853.224-.2613.336-.528.336H10.98zm6.736-4.272l-1.488-4.224-1.488 4.224h2.976zM23.4731 12c-.1066 0-.2026-.0373-.288-.112-.0746-.0853-.112-.1813-.112-.288V1.2c0-.11733.0374-.213334.112-.288.0854-.074667.1814-.112001.288-.112001h1.728c.256 0 .4427.117334.56.352001l2.816 5.04 2.816-5.04c.1174-.234667.304-.352001.56-.352001h1.712c.1174 0 .2134.037334.288.112001.0854.074666.128.17067.128.288v10.4c0 .1173-.0426.2133-.128.288-.0746.0747-.1706.112-.288.112h-1.904c-.1173 0-.2186-.0373-.304-.112-.0746-.0747-.112-.1707-.112-.288v-6l-1.792 3.344c-.1386.24533-.3253.368-.56.368h-.832c-.1386 0-.2506-.032-.336-.096-.0853-.064-.16-.15467-.224-.272L25.7931 5.6v6c0 .1067-.0373.2027-.112.288-.0746.0747-.1706.112-.288.112h-1.92zm12.21 0c-.0853 0-.1653-.032-.24-.096-.064-.0747-.096-.1547-.096-.24 0-.064.0054-.112.016-.144l3.76-10.272c.032-.128.1014-.23467.208-.320001.1067-.085333.2454-.128.416-.128h2.368c.1707 0 .3094.042667.416.128.1067.085331.176.192001.208.320001l3.744 10.272.032.144c0 .0853-.0373.1653-.112.24-.064.064-.144.096-.24.096h-1.968c-.256 0-.4266-.112-.512-.336l-.624-1.632h-4.272l-.608 1.632c-.0853.224-.2613.336-.528.336h-1.968zm6.736-4.272l-1.488-4.224-1.488 4.224h2.976zM48.1763 12c-.1067 0-.2027-.0373-.288-.112-.0747-.0853-.112-.1813-.112-.288V1.2c0-.11733.0373-.213334.112-.288.0853-.074667.1813-.112001.288-.112001h1.696c.2666 0 .448.101334.544.304001l3.904 6.144V1.2c0-.11733.0373-.213334.112-.288.0853-.074667.1813-.112001.288-.112001h1.92c.1173 0 .2133.037334.288.112001.0746.074666.112.17067.112.288v10.384c0 .1173-.0374.2187-.112.304-.0747.0747-.1707.112-.288.112h-1.712c-.2347 0-.4107-.1013-.528-.304l-3.904-5.92V11.6c0 .1067-.0374.2027-.112.288-.0747.0747-.1707.112-.288.112h-1.92zm15.724.16c-1.536 0-2.736-.3733-3.6-1.12-.864-.7573-1.3227-1.82933-1.376-3.216-.0107-.30933-.016-.8-.016-1.472 0-.672.0053-1.16267.016-1.472.0533-1.35467.5173-2.4 1.392-3.136.8853-.736 2.08-1.104001 3.584-1.104001 1.0133 0 1.8933.165334 2.64.496001.7573.33067 1.3333.752 1.728 1.264.4053.512.6186 1.04.64 1.584 0 .096-.0374.176-.112.24-.064.064-.144.096-.24.096h-2.336c-.1067 0-.192-.016-.256-.048s-.1174-.09067-.16-.176c-.1387-.30933-.3574-.576-.656-.8-.2987-.23467-.7147-.352-1.248-.352-1.2694 0-1.936.672-2 2.016-.0107.29867-.016.76267-.016 1.392 0 .61867.0053 1.08267.016 1.392.064 1.408.7466 2.112 2.048 2.112.6293 0 1.1306-.16 1.504-.48.384-.33067.576-.832.576-1.504v-.304h-1.504c-.1174 0-.2134-.03733-.288-.112-.0747-.08533-.112-.18667-.112-.304V5.968c0-.11733.0373-.21333.112-.288.0746-.08533.1706-.128.288-.128h4.032c.1173 0 .2133.04267.288.128.0746.07467.112.17067.112.288v1.824c0 .90667-.208 1.69067-.624 2.352-.416.6507-1.008 1.152-1.776 1.504-.7574.3413-1.6427.512-2.656.512zm6.0016-.16c-.0854 0-.1654-.032-.24-.096-.064-.0747-.096-.1547-.096-.24 0-.064.0053-.112.016-.144l3.76-10.272c.032-.128.1013-.23467.208-.320001.1066-.085333.2453-.128.416-.128h2.368c.1706 0 .3093.042667.416.128.1066.085331.176.192001.208.320001l3.744 10.272.032.144c0 .0853-.0374.1653-.112.24-.064.064-.144.096-.24.096h-1.968c-.256 0-.4267-.112-.512-.336l-.624-1.632h-4.272l-.608 1.632c-.0854.224-.2614.336-.528.336h-1.968zm6.736-4.272l-1.488-4.224-1.488 4.224h2.976zM82.395 12c-.1067 0-.2027-.0373-.288-.112-.0747-.0853-.112-.1813-.112-.288V1.2c0-.11733.0373-.213334.112-.288.0853-.074667.1813-.112001.288-.112001h1.696c.2667 0 .448.101334.544.304001l3.904 6.144V1.2c0-.11733.0373-.213334.112-.288.0853-.074667.1813-.112001.288-.112001h1.92c.1173 0 .2133.037334.288.112001.0747.074666.112.17067.112.288v10.384c0 .1173-.0373.2187-.112.304-.0747.0747-.1707.112-.288.112h-1.712c-.2347 0-.4107-.1013-.528-.304l-3.904-5.92V11.6c0 .1067-.0373.2027-.112.288-.0747.0747-.1707.112-.288.112h-1.92zm11.5 0c-.1067 0-.2027-.0373-.288-.112-.0747-.0853-.112-.1813-.112-.288V1.2c0-.11733.0373-.213334.112-.288.0853-.074667.1813-.112001.288-.112001h2.112c.1173 0 .2133.037334.288.112001.0747.074666.112.17067.112.288v8.384h4.848c.117 0 .213.04267.288.128.075.07467.112.17067.112.288v1.6c0 .1067-.037.2027-.112.288-.075.0747-.171.112-.288.112h-7.36zm9.547 0c-.107 0-.203-.0373-.288-.112-.075-.0853-.112-.1813-.112-.288V1.2c0-.11733.037-.213334.112-.288.085-.074667.181-.112001.288-.112001h2.144c.117 0 .213.037334.288.112001.085.074666.128.17067.128.288v10.4c0 .1173-.043.2133-.128.288-.075.0747-.171.112-.288.112h-2.144zm5.187 0c-.106 0-.202-.0373-.288-.112-.074-.0853-.112-.1813-.112-.288V1.2c0-.11733.038-.213334.112-.288.086-.074667.182-.112001.288-.112001h2.016c.118 0 .214.037334.288.112001.075.074666.112.17067.112.288v3.552l2.96-3.648c.128-.202667.336-.304001.624-.304001h2.304c.096 0 .176.037334.24.112001.064.064.096.13867.096.224 0 .07467-.016.13867-.048.192l-3.84 4.832 4.128 5.312c.043.0427.064.1067.064.192s-.032.1653-.096.24c-.064.064-.144.096-.24.096h-2.384c-.256 0-.469-.1067-.64-.32l-3.168-3.952V11.6c0 .1173-.037.2133-.112.288-.074.0747-.17.112-.288.112h-2.016zm10.61 0c-.107 0-.203-.0373-.288-.112-.075-.0853-.112-.1813-.112-.288V1.2c0-.11733.037-.213334.112-.288.085-.074667.181-.112001.288-.112001h2.112c.117 0 .213.037334.288.112001.074.074666.112.17067.112.288v8.384h4.848c.117 0 .213.04267.288.128.074.07467.112.17067.112.288v1.6c0 .1067-.038.2027-.112.288-.075.0747-.171.112-.288.112h-7.36zm8.507 0c-.086 0-.166-.032-.24-.096-.064-.0747-.096-.1547-.096-.24 0-.064.005-.112.016-.144l3.76-10.272c.032-.128.101-.23467.208-.320001.106-.085333.245-.128.416-.128h2.368c.17 0 .309.042667.416.128.106.085331.176.192001.208.320001l3.744 10.272.032.144c0 .0853-.038.1653-.112.24-.064.064-.144.096-.24.096h-1.968c-.256 0-.427-.112-.512-.336l-.624-1.632h-4.272l-.608 1.632c-.086.224-.262.336-.528.336h-1.968zm6.736-4.272l-1.488-4.224-1.488 4.224h2.976zM140.239 12c-.107 0-.203-.0373-.288-.112-.075-.0853-.112-.1813-.112-.288V1.2c0-.11733.037-.213334.112-.288.085-.074667.181-.112001.288-.112001h4.352c1.397 0 2.485.320001 3.264.960001.789.62933 1.184 1.52533 1.184 2.688 0 .74667-.176 1.38133-.528 1.904-.352.52267-.838.92267-1.456 1.2l2.192 3.936c.032.064.048.1227.048.176 0 .0853-.038.1653-.112.24-.064.064-.139.096-.224.096h-2.128c-.31 0-.528-.144-.656-.432l-1.824-3.52h-1.632V11.6c0 .1173-.043.2133-.128.288-.075.0747-.171.112-.288.112h-2.064zm4.32-6.224c.49 0 .864-.11733 1.12-.352.256-.24533.384-.58133.384-1.008s-.128-.76267-.384-1.008c-.246-.256-.619-.384-1.12-.384h-1.84v2.752h1.84zM150.853 12c-.117 0-.218-.0373-.304-.112-.074-.0747-.112-.1707-.112-.288v-1.136c0-.32.134-.58133.4-.784l1.664-1.632c.971-.74667 1.707-1.328 2.208-1.744.502-.416.88-.79467 1.136-1.136.256-.34133.384-.66667.384-.976 0-.84267-.416-1.264-1.248-1.264-.437 0-.773.13333-1.008.4-.234.256-.389.58133-.464.976-.064.24533-.245.368-.544.368h-2c-.096 0-.176-.032-.24-.096s-.096-.144-.096-.24c.022-.68267.208-1.30667.56-1.872.363-.576.87-1.02933 1.52-1.36.662-.341334 1.419-.512001 2.272-.512001.896 0 1.664.144 2.304.432001.64.288 1.126.69333 1.456 1.216.331.52267.496 1.13067.496 1.824 0 .74667-.234 1.42933-.704 2.048-.458.608-1.162 1.26933-2.112 1.984l-1.472 1.488h4.112c.118 0 .214.03733.288.112.086.07467.128.17067.128.288V11.6c0 .1173-.042.2133-.128.288-.074.0747-.17.112-.288.112h-8.208zm15.48 0c-.106 0-.202-.0373-.288-.112-.074-.0853-.112-.1813-.112-.288V9.792h-4.976c-.117 0-.213-.03733-.288-.112-.074-.07467-.112-.17067-.112-.288v-1.52c0-.16.059-.32533.176-.496l4.656-6.304c.15-.181334.347-.272001.592-.272001h2.336c.118 0 .214.037334.288.112001.075.074666.112.17067.112.288v6.208h1.408c.128 0 .23.04267.304.128.075.07467.112.16533.112.272v1.584c0 .11733-.037.21333-.112.288-.074.07467-.17.112-.288.112h-1.424V11.6c0 .1067-.037.2027-.112.288-.074.0747-.17.112-.288.112h-1.984zm-.336-4.48V3.744l-2.688 3.776h2.688z" fill="#fff"/></svg>