<svg width="31" height="35" fill="none" xmlns="http://www.w3.org/2000/svg"><path d="M26.25 19.9394v-3.1023H24v3.5796c-.004.1568.0241.3126.0824.4568.0583.1442.1453.2733.2551.3784l3.0375 3.2216v1.9091H2.62499v-1.9091l3.0375-3.2216c.1098-.1051.19683-.2342.25509-.3784.05826-.1442.08638-.3.08241-.4568v-5.966c0-2.5316.94821-4.95949 2.63604-6.74961C10.3239 5.91097 12.613 4.9053 15 4.9053c1.5825.00032 3.1361.44934 4.5 1.30056V3.47348c-1.0695-.50812-2.209-.83042-3.375-.95455V.132568h-2.25V2.51893c-2.7701.33493-5.32903 1.73321-7.19415 3.93117-1.86512 2.19795-2.9076 5.0437-2.93086 8.0006v5.4887L.712487 23.161c-.109803.1051-.196831.2342-.255093.3783-.058263.1442-.086377.3001-.082407.4569v3.5795c-.009944.1595.01234.3193.06536.4688.053019.1496.135551.2854.242068.3984.106518.1129.234563.2005.375565.2567.141.0562.2917.0799.44201.0693h7.875c0 1.5823.59263 3.0997 1.64751 4.2186 1.0549 1.1188 2.4856 1.7473 3.9775 1.7473 1.4918 0 2.9226-.6285 3.9775-1.7473 1.0549-1.1189 1.6475-2.6363 1.6475-4.2186H28.5c.1503.0106.301-.0131.442-.0693.141-.0562.269-.1438.3756-.2567.1065-.113.189-.2488.242-.3984.053-.1495.0753-.3093.0654-.4688v-3.5795c.004-.1568-.0242-.3127-.0824-.4569-.0583-.1441-.1453-.2732-.2551-.3783L26.25 19.9394zM15 32.3485c-.8951 0-1.7536-.3772-2.3865-1.0484-.6329-.6713-.9885-1.5818-.9885-2.5312h6.75c0 .9494-.3556 1.8599-.9885 2.5312-.633.6712-1.4914 1.0484-2.3865 1.0484z" fill="url(#paint0_linear)"/><path d="M26.25 13.2576c2.4853 0 4.5-2.1369 4.5-4.77278 0-2.6359-2.0147-4.77272-4.5-4.77272s-4.5 2.13682-4.5 4.77272c0 2.63588 2.0147 4.77278 4.5 4.77278z" fill="url(#paint1_linear)"/><defs><linearGradient id="paint0_linear" x1=".372681" y1=".132568" x2="26.2419" y2=".132568" gradientUnits="userSpaceOnUse"><stop stop-color="#FE5C28"/><stop offset="1" stop-color="#FF8B36" stop-opacity=".9"/></linearGradient><linearGradient id="paint1_linear" x1="21.75" y1="3.7121" x2="29.7085" y2="3.7121" gradientUnits="userSpaceOnUse"><stop stop-color="#FE5C28"/><stop offset="1" stop-color="#FF8B36" stop-opacity=".9"/></linearGradient></defs></svg>