<svg width="38" height="40" fill="none" xmlns="http://www.w3.org/2000/svg"><path d="M19 1.25C9.16275 1.25 1.1875 9.645 1.1875 20S9.16275 38.75 19 38.75c9.8372 0 17.8125-8.395 17.8125-18.75S28.8372 1.25 19 1.25zM2.82269 22.3044l5.08665 1.3325c-.02197.2525-.04334.5056-.04334.7825-.00185 2.0601.4899 4.0874 1.42975 5.8943l-2.56144 1.0138c-2.1203-2.5361-3.48118-5.6753-3.91162-9.0231zM19 37.1875c-4.0684 0-7.7906-1.5775-10.65306-4.1788l2.12326-.8531c2.0437 2.6406 5.1074 4.3238 8.5298 4.3238 3.4224 0 6.4861-1.6832 8.5304-4.3238l2.1233.8531C26.7918 35.6094 23.0696 37.1875 19 37.1875zM9.35097 24.4188c0-3.6194 2.21823-4.3463 5.79673-4.3463.6561 0 1.3211.0238 1.9725.0469 1.2528.0462 2.5068.0462 3.7596 0 .6531-.0231 1.3175-.0469 1.9724-.0469 3.5798 0 5.7974.7269 5.7974 4.3463 0 5.7887-4.329 10.4981-9.6496 10.4981s-9.64903-4.7094-9.64903-10.4981zm21.91473 6.9081l-2.5614-1.0138c.9398-1.807 1.4315-3.8343 1.4297-5.8943 0-.2769-.0208-.53-.0428-.7826l5.0861-1.3324c-.4294 3.3481-1.7904 6.4876-3.9116 9.0231zM29.567 21.52c-1.3847-3-4.9763-3.0094-6.7148-3.0094-.6715 0-1.3531.0238-2.0223.0482-1.2191.045-2.4395.045-3.6586 0-.6742-.0283-1.3488-.0444-2.0236-.0482-1.7385 0-5.32945.01-6.71407 3.0094l-5.76057-1.4988L2.67188 20c0-3.6931 1.11625-7.1156 3.00675-9.9206.2179.3137.5789.5906.73149.45.94917-.84346 2.06332-1.45622 3.26313-1.79467 1.19985-.33846 2.45575-.39427 3.67845-.16348.3443.07062.6483-1.26313.2309-1.3475-2.3257-.43451-4.72218.0355-6.74319 1.3225C9.83191 5.03 14.1734 2.8125 19 2.8125c4.9133 0 9.3237 2.29938 12.3191 5.92562-2.052-1.36162-4.5129-1.86821-6.9011-1.42062-.4174.08438-.1146 1.41875.2298 1.3475 2.4747-.4675 5.0213.25 6.9415 1.9581.1609.1469.5528-.1637.7647-.495 1.938 2.8874 2.9771 6.3366 2.9741 9.8719v.0206L29.567 21.52z" fill="#DC1E1E"/><path d="M22.018 12.5331c-.4536.165-.7956.185-.7374.46 1.1934 5.4825 6.0592 6.8538 9.6983 2.7356.1811-.2081-.1057-.405-.4198-.7887-2.9343 1.3219-6.8061.0306-8.5411-2.4069zM15.9832 12.5319c-1.9125 2.6875-5.8794 3.6075-8.53995 2.4094-.31409.3818-.60206.5793-.42097.7875 3.63912 4.12 8.50372 2.7468 9.69952-2.7357.057-.275-.2838-.2956-.7386-.4612z" fill="#DC1E1E"/></svg>