<svg width="38" height="40" fill="none" xmlns="http://www.w3.org/2000/svg"><path d="M19 1.25C9.16275 1.25 1.1875 9.645 1.1875 20S9.16275 38.75 19 38.75c9.8372 0 17.8125-8.395 17.8125-18.75S28.8372 1.25 19 1.25zm10.9155 30.24c-1.4261 1.5006-3.1194 2.6903-4.983 3.5011-1.8635.8108-3.8606 1.2267-5.8771 1.2239-8.4946 0-15.38207-7.2483-15.38207-16.1917 0-8.9433 6.88587-16.19163 15.38207-16.19163 8.4946 0 15.3821 7.24833 15.3821 16.19163.0024 2.2025-.4233 4.3822-1.2508 6.405l.038-.105c-.7769 1.9299-1.9006 3.6836-3.3092 5.165v.0017z" fill="#15CE3D"/><path d="M11.2812 15.625H14.25v3.125h-2.9688v-3.125zM23.75 15.625h2.9688v3.125H23.75v-3.125zM25.1069 24c-.4596 1.2157-1.2548 2.2585-2.283 2.9938-1.0281.7353-2.2421 1.1293-3.4851 1.1312h-.6776c-1.2362-.0001-2.4441-.3886-3.4692-1.1157-1.0251-.7272-1.8206-1.76-2.2847-2.966L12.8931 24l-.095-.25h-2.5587l.4481 1.1783c1.3047 3.3667 4.3906 5.6967 7.9942 5.6967h.6381c1.7105.0004 3.3823-.5355 4.8022-1.5394 1.4198-1.0039 2.5234-2.4303 3.1699-4.0973l.0206-.06.4481-1.1783h-2.5587l-.095.25z" fill="#15CE3D"/></svg>