<svg width="38" height="39" fill="none" xmlns="http://www.w3.org/2000/svg"><path d="M0 19.4099c0 3.8152 1.11433 7.5447 3.20208 10.7169 2.08774 3.1722 5.05514 5.6447 8.52692 7.1047 3.4718 1.46 7.2921 1.842 10.9777 1.0977 3.6856-.7443 7.0711-2.5815 9.7283-5.2792 2.6572-2.6978 4.4668-6.1349 5.1999-9.8768.7331-3.7419.3569-7.6205-1.0812-11.1453-1.4381-3.52473-3.8733-6.53741-6.9979-8.65702C26.4313 1.25127 22.7578.119934 19 .119934c-5.0391 0-9.87184 2.032326-13.43503 5.649896C2.00178 9.3874 0 14.2939 0 19.4099zm31.4179 10.6784L8.48214 6.80253C11.6044 4.16393 15.5853 2.80534 19.6435 2.9934c4.0582.18805 7.9006 1.90918 10.7732 4.82557 2.8725 2.91643 4.5678 6.81743 4.753 10.93763.1853 4.1201-1.1529 8.1617-3.7518 11.3317zM8.46857 32.031c-3.28656-2.8335-5.33221-6.8746-5.68838-11.2372-.35618-4.3625 1.0062-8.6905 3.78838-12.03472L29.4907 32.031c-2.9393 2.5215-6.663 3.9049-10.5111 3.9049-3.848 0-7.5718-1.3834-10.51103-3.9049z" fill="#000"/></svg>