<svg width="109" height="33" fill="none" xmlns="http://www.w3.org/2000/svg"><path d="M102.434 0H6.56627C2.93982 0 0 2.95492 0 6.6v19.8C0 30.0451 2.93982 33 6.56627 33H102.434c3.626 0 6.566-2.9549 6.566-6.6V6.6c0-3.64508-2.94-6.6-6.566-6.6z" fill="#D6DEEA"/><path fill-rule="evenodd" clip-rule="evenodd" d="M34.8779 24.6708h.8358c.0217-.2158.0742-.4145.1576-.5966.0789-.1766.1903-.3365.3283-.4713.1366-.132.2968-.2343.482-.3089.1845-.0745.3894-.1122.614-.1122.2488 0 .4721.0436.6697.1307.197.0871.3658.2073.5036.3604.1386.1531.2443.3339.3179.5425.0735.2079.1103.4349.1103.6791v.0687c0 .2442-.0368.4706-.1103.6791-.0686.2001-.1767.3842-.3179.5412-.1378.1518-.3053.2706-.5023.3564-.197.0865-.4182.1294-.6645.1294-.2311 0-.4406-.0383-.629-.1149-.1818-.0729-.3475-.1813-.4874-.3189-.1398-.1376-.2512-.3018-.3275-.483-.083-.1944-.133-.4014-.1477-.6124h-.8326v1.4671h-.6035v-3.3633h.6035v1.4269zm1.4294.2924c0 .1676.0197.326.0611.4752.0414.1491.1037.2805.1865.3933.0834.1129.1871.2027.3112.2687.1248.066.2692.0996.436.0996.1642 0 .3086-.033.4347-.099.1248-.0666.2292-.1564.3112-.2693.0821-.1128.1445-.2442.1859-.3933.0427-.1492.0637-.3076.0637-.4752v-.0687c0-.1656-.021-.3234-.0637-.4738-.0382-.142-.1018-.2758-.1878-.3947-.0827-.1126-.1895-.2051-.3126-.2706-.1353-.0698-.2859-.1045-.4379-.101-.1642 0-.308.033-.4308.101-.1219.0661-.2277.1585-.3099.2706-.0859.1188-.1492.2526-.1865.3947-.0414.1544-.062.3138-.0611.4738v.0687zm4.9556.2112h-.438v1.4328h-.6028v-3.3633h.6028v1.4236h.3927l1.1799-1.4236h.7263l-1.3875 1.617 1.5037 1.7463h-.7617l-1.2154-1.4328zm5.8991-1.9305v3.3633h-.6028v-2.8875h-1.1898l-.042.9636c-.0151.3188-.044.5987-.086.8389-.0321.2101-.0984.4135-.1963.6019-.0807.1523-.2033.2779-.3533.3617-.1471.0812-.3316.1214-.5542.1214h-.1753l.0131-.5128.13-.0033c.1013.0043.2014-.0234.2863-.0792.0827-.0637.1452-.1501.1799-.2488.046-.1122.0795-.2581.1025-.4363.0223-.1782.0407-.3927.0531-.6435l.0657-1.4388h2.3691v-.0006zm3.6587 3.3633c-.0243-.0497-.0418-.1025-.0518-.157-.0133-.0654-.024-.1312-.0322-.1974-.059.0584-.1224.112-.1898.1604-.2358.1689-.5187.2586-.8083.2561-.1799 0-.3421-.0264-.4879-.0779-.1363-.0463-.2628-.1179-.3729-.2112-.1022-.0866-.184-.1948-.2398-.3169-.0557-.122-.0839-.255-.0826-.3893 0-.1795.0368-.3386.1103-.4765.0735-.138.1786-.2535.3152-.3465.1379-.0931.304-.1637.4984-.2112.1943-.0475.4117-.072.6513-.072h.5962v-.264c0-.2006-.0623-.361-.1877-.4798-.1248-.1194-.31-.1788-.5542-.1788-.1123 0-.2154.0145-.3087.0435-.0851.0252-.1654.0645-.2377.1162-.0624.0451-.1148.1029-.1536.1696-.0359.0612-.055.1309-.0552.202h-.6034c0-.1202.0328-.2396.0985-.3578.0663-.1174.1602-.2244.281-.3181.1209-.0944.2673-.1716.4393-.2303.1721-.0594.3638-.0885.5752-.0885.1904 0 .3658.0231.5266.07.1616.0462.2988.1168.4137.2112.1143.0944.2036.2119.2692.3531.0644.1406.0972.3056.0972.4943v1.5636c0 .1135.0099.2336.0302.3584.021.1254.0519.2336.0926.3253v.0495h-.6291zm-.9947-.4382c.1076 0 .2101-.0145.3046-.0436.0952-.029.1813-.0666.2594-.1135.0743-.0437.1424-.0975.2022-.1597.0578-.0607.1025-.1228.1346-.1868v-.6903h-.499c-.3434 0-.608.0514-.7945.1544-.1852.1023-.2784.2574-.2784.4646 0 .0806.0138.1565.042.2264.0277.0701.0716.1325.1281.1822.0619.0535.1334.0948.2107.1214.0834.0297.1799.0449.2903.0449zm4.511-2.7324c.2298 0 .4334.0383.6133.1148.1792.0773.3316.1835.457.3208.1247.1366.2213.297.2869.4831.0657.1848.0985.3868.0985.6046v.0713c0 .2343-.0348.4514-.105.6514-.0659.1924-.1708.3691-.308.5187-.1381.1482-.306.2652-.4925.3432-.2092.0864-.4337.129-.6599.1254-.2261.0036-.4506-.039-.6599-.1254-.1868-.0783-.3549-.1956-.4931-.3442-.1383-.1486-.2435-.3251-.3086-.5177-.0729-.2093-.1091-.4297-.1071-.6514v-.3076c0-.3815.0381-.7148.115-1.0012.0768-.2858.1845-.528.3243-.7273.1392-.1987.306-.3564.5004-.4719.195-.1162.4097-.1961.6454-.2396.1132-.0184.2256-.0413.3369-.0687.0998-.0244.1838-.0554.2548-.0924.064-.032.1191-.0797.1602-.1386.0385-.0608.0577-.1319.0551-.2039h.4925c0 .2033-.0328.3637-.0985.4818-.0657.1181-.1536.2105-.2626.2772-.1168.069-.2439.1186-.3763.1472-.145.0329-.2903.0643-.436.0944-.1423.0299-.2817.0727-.4163.128-.1313.0535-.2482.1261-.3519.2178-.1081.0968-.1979.2124-.2653.3412-.0798.156-.1335.3241-.1589.4977.142-.1569.3116-.286.5003-.3809.1937-.099.4137-.1478.6599-.1478h-.0006zm-.1162.4726c-.1642 0-.3067.0283-.4275.0858-.1159.0529-.2185.1314-.3001.2296-.0788.0964-.1379.2086-.1753.336-.038.1296-.0571.2641-.0565.3993v.0713c0 .1577.0191.3075.0565.4488.0381.1425.0972.2666.1773.3735.0794.1069.1799.1914.3014.2548.1208.0633.2646.095.4307.095.1642 0 .3073-.0317.4295-.095.1189-.0603.2223-.1475.302-.2548.0788-.1069.1379-.231.176-.3729.0394-.1419.0591-.2917.0591-.4488v-.0726c0-.1386-.0197-.2712-.0591-.3986-.0363-.1229-.0968-.2371-.178-.336-.0828-.0983-.1864-.1768-.3033-.2296-.1363-.0601-.284-.0893-.4327-.0858zm4.7933.9853c0-.2442.0375-.4712.1117-.6791.0748-.2086.1805-.3894.3178-.5425.1394-.1548.3102-.2777.501-.3604.197-.0871.4169-.1307.6612-.1307.2482 0 .4715.0436.6698.1307.1969.0871.365.2073.5036.3604.1379.1531.2443.3339.3178.5425.0735.2079.1096.4349.1096.6791v.0687c0 .2442-.0361.4706-.1096.6791-.0686.2001-.1767.3842-.3178.5412-.1379.1518-.306.2706-.5023.3564-.197.0865-.4183.1294-.6645.1294-.2469 0-.4682-.0429-.6645-.1287-.197-.0858-.3645-.2053-.503-.3577-.1412-.1573-.2497-.3413-.3191-.5412-.0761-.218-.1139-.4476-.1117-.6785v-.0687zm.6028.0687c0 .1676.0204.326.0617.4752.0408.1491.1031.2805.1865.3933.0828.1129.1865.2027.3113.2687.1241.066.2692.0996.436.0996.1641 0 .3086-.033.434-.099.1254-.0666.2292-.1564.3112-.2693.0821-.1128.1445-.2442.1865-.3933.042-.1492.063-.3076.063-.4752v-.0687c0-.1656-.021-.3234-.063-.4738-.0381-.142-.1018-.2758-.1878-.3947-.0829-.1127-.1899-.2052-.3132-.2706-.1352-.0697-.2855-.1044-.4373-.101-.1642 0-.3086.033-.4314.101-.1217.0662-.2273.1586-.3093.2706-.0834.1122-.1457.2442-.1865.3947-.0416.1544-.0624.3138-.0617.4738v.0687zm6.6963-1.7193v3.3633h-.6028v-2.8875h-1.1898l-.042.9636c-.0111.2812-.0396.5613-.0854.8389-.0322.2102-.0988.4135-.197.6019-.0804.1522-.2029.2778-.3526.3617-.1471.0812-.3316.1214-.5542.1214h-.1753l.0131-.5128.1294-.0033c.1015.0044.2019-.0233.2869-.0792.0827-.0637.1452-.1501.18-.2488.0459-.1122.0794-.2581.1024-.4363.0223-.1782.04-.3927.0532-.6435l.065-1.4388h2.3691v-.0006zm3.7631 0h.5995v3.3633h-.5995v-2.4525l-1.6173 2.4525h-.6001v-3.3633h.6001v2.4552l1.6173-2.4552zm4.9589 3.3633h-.5995v-1.4361H72.825v1.4361h-.6035v-3.3633h.6035v1.4579h1.6107v-1.4579h.5995v3.3633zm3.7598-2.8875h-1.6173v2.8875h-.6034v-3.3633h2.2207v.4758zm-36.4021-5.2001l-.1582-.4521-.3644-1.0402c-.1209-.347-.2422-.694-.3638-1.0408l-.1589-.4514h-4.1387l-1.0454 2.9838H34.801l3.836-10.42533h1.2831l3.836 10.42533h-1.3632v.0007zm-3.136-8.84401l-.1694.48051c-.1394.3956-.2778.7916-.415 1.188-.1628.4725-.3283.9444-.4938 1.4163-.1655.4726-.3053.8686-.4183 1.1887l-.1694.4805h3.3751l-1.6659-4.75401h-.0433zm9.4449.98341c.9902 0 1.7926.363 2.4085 1.091.6153.7273.9226 1.6856.9226 2.8756 0 1.1893-.3054 2.1483-.9154 2.8756-.6106.7273-1.4065 1.091-2.3868 1.091-.5529 0-1.0427-.1168-1.4708-.3505-.4216-.2276-.7712-.5694-1.0093-.9867h-.0289v3.865h-1.2541V10.7303h1.1891v1.2645h.0289c.2259-.4045.5673-.7286 1.0244-.9715.4595-.2439.9721-.3694 1.4918-.365v.0007zm-.2305 6.8132c.6875 0 1.2391-.2587 1.6547-.7768.4157-.5181.6238-1.2078.6238-2.0698 0-.8626-.2081-1.5523-.6238-2.0704-.4156-.5175-.9672-.7762-1.6547-.7762-.6684 0-1.2114.262-1.6297.7874-.4183.5247-.6271 1.2111-.6271 2.0592 0 .8474.2088 1.5338.6271 2.0592.4183.5247.9613.7874 1.6297.7874zm8.7962-6.8132c.9902 0 1.7926.363 2.4079 1.091.6152.7273.9232 1.6856.9232 2.8756 0 1.1893-.3054 2.1483-.916 2.8756-.6107.7273-1.4052 1.091-2.3862 1.091-.5529 0-1.0434-.1168-1.4708-.3505-.4216-.2276-.7712-.5694-1.0093-.9867h-.0289v3.865h-1.2541V10.7303h1.1885v1.2645h.0295c.2259-.4045.5673-.7286 1.0237-.9715.4597-.244.9726-.3695 1.4925-.365v.0007zm-.2305 6.8132c.6869 0 1.2384-.2587 1.6547-.7768.4157-.5181.6238-1.2078.6238-2.0698 0-.8626-.2081-1.5523-.6238-2.0704-.4163-.5175-.9678-.7762-1.6547-.7762-.6684 0-1.2114.262-1.6297.7874-.4183.5247-.6271 1.2111-.6271 2.0592 0 .8474.2088 1.5338.6271 2.0592.4183.5247.9613.7874 1.6297.7874zm8.4357-1.821c.0624.9201.4459 1.6566 1.1498 2.211.7039.5544 1.6067.831 2.7072.831 1.1971 0 2.1452-.2785 2.8445-.8349.6994-.5557 1.0493-1.3108 1.0493-2.2645 0-.7471-.2364-1.3444-.7072-1.7919-.4708-.4481-1.2449-.8072-2.3211-1.0764l-1.0887-.2891c-.7065-.1835-1.2148-.4013-1.5254-.6534-.3099-.2535-.4649-.5775-.4649-.9722 0-.5108.2128-.92467.6383-1.24279.4255-.31812.9744-.47718 1.6475-.47718.6776 0 1.2279.1617 1.6507.48444.4235.32274.6632.76363.721 1.32203h1.2981c-.0288-.8765-.3821-1.59197-1.0597-2.14571-.6777-.5544-1.5333-.83094-2.5675-.83094-1.0808 0-1.9639.27456-2.6494.82368-.6849.54912-1.027 1.25727-1.027 2.12387 0 1.3636.9226 2.281 2.7683 2.7529l1.3343.3471c.7013.1782 1.2121.4092 1.5319.693.3198.2845.4793.6482.4793 1.091 0 .5109-.2298.9333-.6881 1.2685-.4596.3347-1.0394.5016-1.7414.5016-.7406 0-1.3559-.1709-1.8458-.5128-.4905-.3419-.7669-.7946-.8293-1.3583h-1.3047zm9.6971-6.67587v1.75557h-1.0815v1.0409h1.0815v4.7249c0 .7465.1503 1.2804.4504 1.6005.3008.3201.8018.4805 1.5037.4805.1491 0 .302-.0066.4577-.0185.1562-.0119.2731-.0277.3499-.0462v-1.0626c-.0433.0046-.1247.0119-.2455.0218-.0983.0086-.1969.0135-.2955.0145-.3316 0-.5752-.0845-.7315-.2528-.1563-.1689-.2344-.4316-.2344-.788v-4.6741h1.5142v-1.0409h-1.5142V8.97533h-1.2548zm7.542 9.61617c-1.0913 0-1.9614-.3597-2.6101-1.0797-.6488-.7201-.9738-1.6824-.9738-2.8862 0-1.2091.325-2.1727.9738-2.8901.6487-.7175 1.5188-1.0765 2.6101-1.0765 1.0906 0 1.9607.359 2.6101 1.0765.6487.7174.9731 1.681.9731 2.8901 0 1.2038-.3244 2.1661-.9731 2.8862-.6494.72-1.5195 1.0804-2.6101 1.0804v-.0007zm0-1.1193c.7256 0 1.2916-.2521 1.698-.7551.4058-.5035.6087-1.2012.6087-2.0922 0-.8956-.2029-1.5939-.6087-2.0948-.4064-.5009-.9718-.7511-1.698-.7511s-1.2923.2515-1.698.7551c-.4065.5029-.6094 1.2005-.6094 2.0915s.2042 1.588.6126 2.0915c.4091.503.9738.7551 1.6941.7551h.0007zm5.0823 1.0474h1.2548v-4.8187c0-.5491.153-.9926.4583-1.3299.3053-.3366.7098-.5055 1.2148-.5055.1536 0 .2941.0072.4215.0218.1274.0145.2154.031.2633.0501v-1.2348c-.1713-.0293-.3449-.0438-.5187-.0436-.4524 0-.8497.1201-1.1937.361-.3376.2325-.5816.5784-.6882.9755h-.0289v-1.2646h-1.1826v7.7887h-.0006zm7.9603-6.7551c-.6107 0-1.1163.202-1.5175.6072-.4012.4039-.6238.9365-.6671 1.5965h4.2759c-.0144-.66-.2127-1.1926-.5949-1.5972-.3821-.4045-.8812-.6072-1.4964-.6072v.0007zm2.0618 4.5296h1.241c-.1064.6699-.4616 1.2203-1.0677 1.6513-.6054.431-1.3244.6468-2.1557.6468-1.0913 0-1.9574-.3557-2.5989-1.0659-.6422-.7108-.9626-1.6678-.9626-2.8717 0-1.2091.3191-2.178.9586-2.9046.6396-.7273 1.488-1.091 2.5451-1.091 1.0382 0 1.8603.3419 2.4657 1.0256.606.6845.9087 1.6164.9087 2.7965v.491h-5.5806v.0726c0 .7418.2094 1.3339.627 1.7774.4183.4428.9738.6646 1.6659.6646.4859 0 .9048-.1076 1.2581-.3214.3533-.2145.5851-.5049.696-.8712h-.0006z" fill="#295091"/><path d="M24.7573 25.016c-.9088 1.3279-1.8484 2.6472-3.3317 2.675-1.4604.0277-1.9279-.8646-3.5944-.8646-1.6679 0-2.1892.8368-3.5675.8923-1.4321.0534-2.5214-1.4342-3.4374-2.7562-1.8714-2.702-3.2989-7.6408-1.37893-10.9738.95213-1.6553 2.65603-2.7027 4.50253-2.7304 1.4065-.0264 2.7355.9477 3.5943.9477.8602 0 2.4729-1.1688 4.1683-.9972.7098.029 2.7014.2858 3.9805 2.1562-.1012.0667-2.377 1.3906-2.3494 4.1481.0275 3.2947 2.8878 4.389 2.9213 4.4042-.0263.0779-.457 1.5635-1.5076 3.0987zM18.5285 7.59c.7847-.92004 2.1117-1.6038 3.2063-1.65.1399 1.27776-.3743 2.55684-1.1333 3.4782-.7617.9207-2.0067 1.6368-3.2293 1.5418-.1661-1.25008.4504-2.55358 1.1557-3.37h.0006z" fill="#295091"/></svg>