<svg width="18" height="20" fill="none" xmlns="http://www.w3.org/2000/svg"><path d="M9 .3125C4.18331.3125.28125 4.64875.28125 10c0 5.3512 3.90262 9.6875 8.71875 9.6875 4.8167 0 8.7188-4.3363 8.7188-9.6875C17.7188 4.64875 13.8161.3125 9 .3125zm4.2823 6.63688l-1.431 7.49252c-.1057.5312-.3904.66-.7875.41l-2.17968-1.785-1.05131 1.125c-.11587.1287-.21431.2381-.43931.2381l.15469-2.465L11.5875 7.91c.1761-.17188-.0388-.26938-.2711-.0975l-4.99221 3.4919-2.15156-.7463c-.46744-.1637-.47813-.5194.09843-.76935l8.40604-3.60187c.3903-.15625.7312.10562.6046.76187l.0006.00063z" fill="#295093"/></svg>