<svg width="32" height="33" fill="none" xmlns="http://www.w3.org/2000/svg"><path fill-rule="evenodd" clip-rule="evenodd" d="M15.887.223999C7.128.223999 0 7.396 0 16.209c0 8.815 7.128 15.987 15.887 15.987 8.763 0 15.891-7.172 15.891-15.987 0-8.813-7.128-15.985001-15.89-15.985001h-.001zM22.978 12.552c.006.157.01.317.01.478 0 4.86-3.678 10.466-10.406 10.466-1.9896.0032-3.93734-.571-5.607-1.653.95838.1166 1.93037.0421 2.8598-.2192.9294-.2612 1.7979-.704 2.5552-1.3028-.7649-.0164-1.5055-.2718-2.1179-.7304-.61241-.4586-1.06598-1.0973-1.2971-1.8266.54743.1074 1.1123.0858 1.65-.063-.82984-.1704-1.57529-.6223-2.11015-1.2793-.53486-.6569-.82625-1.4786-.82485-2.3257 0-.016 0-.032.004-.048.49.277 1.056.44 1.656.46-.50225-.3374-.91357-.7934-1.19753-1.3277-.28397-.5342-.43182-1.1303-.43047-1.7353 0-.673.181-1.304.494-1.848.91522 1.1349 2.0596 2.0638 3.3583 2.7262 1.2988.6624 2.7227 1.0433 4.1787 1.1178-.0631-.2752-.0946-.5567-.094-.839 0-2.03 1.638-3.678 3.657-3.678.5006-.00049.9959.10227 1.4549.30186.4591.19959.8721.49173 1.2131.85814.8213-.1603 1.6084-.46248 2.326-.893-.2723.8516-.8443 1.5754-1.61 2.037.7252-.0853 1.4333-.2801 2.1-.578-.4898.737-1.1067 1.381-1.822 1.902z" fill="#295091"/></svg>