<svg width="111" height="33" fill="none" xmlns="http://www.w3.org/2000/svg"><path d="M107.616 0H3.38415C1.51513 0 0 1.50761 0 3.36735V29.6327C0 31.4924 1.51513 33 3.38415 33H107.616c1.869 0 3.384-1.5076 3.384-3.3673V3.36735C111 1.50761 109.485 0 107.616 0z" fill="#295091" fill-opacity=".19"/><path fill-rule="evenodd" clip-rule="evenodd" d="M36.8059 24.2247h.9232c.0237-.2492.0813-.4795.1733-.691.0921-.2108.2132-.3926.3635-.5455.1515-.153.3321-.2746.5313-.3576.2148-.0887.4456-.1329.6782-.13.2741 0 .5204.0505.7384.1515.2186.1011.4041.2398.5563.4176.153.1778.2701.3872.3506.6283.0813.2411.1219.5031.1219.786v.0794c0 .2829-.0406.5456-.1219.7867-.0812.2411-.1976.4498-.3506.6263-.1527.1762-.3421.3173-.555.4135-.2304.1026-.4806.1536-.733.1495-.2379.0035-.474-.0417-.6937-.1327-.2028-.0855-.3861-.211-.5388-.369-.1548-.1623-.2774-.3522-.3614-.5597-.0917-.2263-.1466-.4657-.1624-.7091h-.9199v1.6984h-.6653v-3.8946h.6653v1.6527-.0007zm1.5777.3387c0 .1947.0231.3779.0677.5509.046.1725.1151.3247.2065.4553.0913.1307.2064.2344.3431.3112.1374.0767.2978.1151.4812.1151.1621.0032.3224-.0341.4662-.1086.1438-.0745.2665-.1837.3569-.3177.0907-.1306.159-.2828.2057-.4553.0467-.173.0697-.3569.0697-.5509v-.0794c.001-.1852-.0225-.3698-.0697-.5489-.0418-.1632-.1121-.3177-.2078-.4566-.0898-.129-.2078-.2361-.3452-.3132-.1478-.0804-.3141-.1208-.4825-.1172-.1814 0-.3405.0391-.4758.1172-.1361.0775-.2505.1819-.3418.3132-.0956.1387-.1653.2933-.2058.4566-.0453.1744-.0677.3569-.0677.5489v.0794h-.0007zm5.4702.2445h-.4826v1.6594h-.666v-3.8946h.666v1.6486h.4332l1.3015-1.6486h.8014l-1.531 1.8722 1.6602 2.0224h-.8413l-1.3414-1.6594zm6.5111-2.2352v3.8946h-.6654v-3.3437h-1.313l-.0467 1.1159c-.0162.3697-.0481.6937-.0948.9718-.035.242-.1081.477-.2165.6964-.0867.1743-.2221.3199-.3899.4196-.1624.0936-.3655.14-.6119.14h-.1928l.0135-.594.1435-.0033c.1128.0049.2241-.0273.3167-.0916.0925-.0754.1615-.1753.199-.2883.0501-.1306.088-.299.1124-.5051.025-.2067.0446-.4552.0589-.7455l.0717-1.6668h2.6153zm4.0393 3.8946c-.0271-.0578-.0465-.1189-.0575-.1818-.0148-.0756-.0267-.1518-.0359-.2283-.0649.0672-.1351.1291-.2098.1852-.2557.1958-.5702.3002-.8928.2963-.1833.0031-.3656-.027-.538-.0889-.1611-.0606-.2979-.1414-.4116-.2451-.1123-.102-.2018-.2264-.2626-.365-.0626-.1425-.0944-.2965-.0934-.4519 0-.2088.0406-.3933.1219-.5523.0816-.1602.2015-.298.3492-.4014.1509-.1077.3344-.1899.5489-.2451.2354-.0577.4771-.0855.7195-.0828H54.3v-.3058c0-.233-.0691-.4182-.2072-.5563-.1387-.138-.3424-.2067-.6118-.2067-.1152-.0013-.2299.0158-.3398.0505-.1029.0336-.1908.0781-.2633.1347-.0697.0528-.1275.1196-.1698.1959-.04.0718-.0609.1524-.061.2344h-.6653c0-.1394.0366-.2775.109-.4142.0724-.1367.176-.2599.3093-.369.134-.1091.2951-.198.4853-.2661.1895-.0686.4007-.103.6348-.103.2099 0 .4034.0269.5814.0808.1774.0539.3297.1361.4562.2452.1266.1091.2254.2458.2972.4088.071.1629.1069.3535.1069.5724v1.8103c0 .132.0115.2707.0338.4155.023.1455.0569.2708.1022.3765v.0572h-.6937zm-1.0985-.5071c.1191 0 .2315-.0168.3364-.0505.1049-.0337.2003-.0774.2856-.1313.086-.0539.1604-.1159.2234-.1852.0636-.0701.113-.1415.1489-.2162v-.7994h-.551c-.379 0-.6714.0599-.8765.1785-.097.0518-.1773.1297-.2318.2249-.0544.0952-.0808.2037-.0761.3132 0 .0936.0155.1811.0473.2626.0299.0802.0781.1524.1408.2108.063.0586.1408.1057.2329.1401.0913.035.1983.0525.3201.0525zm4.9794-3.1639c.2532 0 .4785.0444.6769.1326.1976.0889.3654.2129.5042.3711.1381.1583.2437.3448.3168.5597.0724.2148.1082.4485.1082.7004v.0828c0 .2707-.0385.522-.1157.7543-.0716.2209-.1871.4252-.3398.6007-.1504.17-.3361.3056-.5441.3974-.2294.0992-.4775.1483-.7276.1441-.2504.0045-.4987-.0447-.7283-.1441-.2081-.0918-.3937-.2274-.5442-.3974-.1529-.1759-.2691-.3803-.3418-.6014-.0805-.2433-.1202-.4981-.1177-.7543v-.3562c0-.4411.0426-.8277.1272-1.1584.0706-.2988.1915-.5837.3574-.8425.1543-.2303.3384-.4128.5529-.5475.2146-.1347.4522-.2263.7121-.2768.138-.0243.2626-.0505.3722-.0795.1097-.0283.2031-.0647.2809-.1078.0715-.0378.1322-.0929.1767-.1602.0426-.0712.0637-.153.0609-.2358h.5441c0 .2358-.0365.421-.1096.5577-.0667.1302-.1666.2408-.2897.3206-.1276.0798-.2679.1376-.4149.171-.1556.0371-.3167.0741-.4805.1098-.1625.0357-.3161.0848-.4603.1482-.1429.0611-.2742.1461-.3885.2512-.1144.1057-.2118.2377-.293.396-.0813.1582-.1395.3502-.176.5758.1553-.1797.3428-.329.553-.4405.2245-.1166.4749-.1755.7282-.171zm-.1286.5468c-.1814 0-.3384.0337-.4724.099-.1333.066-.2437.1549-.331.2667-.089.1158-.1546.2478-.1929.3886-.0424.1506-.0635.3063-.0629.4627v.0828c0 .1818.021.3556.0629.5199.0413.1644.1063.3085.195.4317.0879.1239.199.2223.3323.2957.134.0727.2924.1098.4765.1098.1807 0 .3384-.0371.4738-.1098.1353-.0741.2456-.1718.333-.2957.0866-.1232.1516-.2673.1949-.4317.0436-.1698.0652-.3446.0643-.5199v-.0828c0-.1617-.0217-.3152-.0643-.4627-.0397-.141-.1066-.273-.197-.3886-.0897-.1129-.204-.2041-.3343-.2667-.1495-.0691-.3131-.103-.4779-.099zm5.2908 1.1409c0-.2829.0406-.5455.1232-.786.0757-.2296.1947-.4429.3506-.6283.1516-.1778.3357-.3165.553-.4176.2165-.101.4602-.1515.7296-.1515.2741 0 .5211.0505.7391.1515.2179.1011.4034.2398.5563.4176.1523.1778.2694.3872.3506.6283.0812.2411.1219.5031.1219.786v.0794c0 .2829-.0407.5456-.1219.7867-.0812.2411-.1983.4498-.3506.6263-.1527.1762-.3421.3173-.555.4135-.2166.0997-.4616.1495-.733.1495-.2721 0-.5164-.0498-.7337-.1495-.2129-.0962-.4022-.2373-.555-.4135-.1569-.1842-.2764-.3969-.3519-.6263-.0842-.2537-.1259-.5195-.1232-.7867v-.0794zm.6653.0794c0 .1947.0224.3779.0677.5509.0454.1725.1144.3247.2058.4553.092.1307.2064.2344.3438.3112.1367.0767.2978.1151.4805.1151.1622.0033.3227-.034.4666-.1084.1439-.0745.2668-.1838.3571-.3179.0901-.1306.1591-.2828.2051-.4553.0474-.173.0704-.3569.0704-.5509v-.0794c.0007-.1853-.0229-.3698-.0704-.5489-.0416-.1631-.1117-.3177-.2071-.4566-.0898-.129-.2078-.2361-.3452-.3132-.148-.0805-.3146-.1209-.4832-.1172-.1663-.0037-.3305.0367-.4758.1172-.1354.0775-.2505.1819-.3418.3132-.0954.1388-.165.2934-.2058.4566-.0453.1744-.0677.3569-.0677.5489v.0794zm7.391-1.9907v3.8946h-.6653v-3.3437h-1.3131l-.0467 1.1159c-.0162.3697-.048.6937-.0947.9718-.0351.242-.1082.477-.2166.6964-.0867.1743-.222.3199-.3899.4196-.1624.0936-.3655.14-.6118.14h-.1929l.0135-.594.1435-.0033c.1128.0049.2241-.0273.3168-.0916.0924-.0754.1615-.1753.199-.2883.05-.1306.0879-.299.1123-.5051.025-.2067.0447-.4552.0589-.7455l.0717-1.6668h2.6153zm4.1537 0h.6619v3.8946h-.6619v-2.84l-1.7855 2.84h-.6619v-3.8946h.6619v2.844l1.7855-2.844zm5.4735 3.8946h-.6619v-1.6628h-1.778v1.6635h-.666v-3.8953h.666v1.6884h1.778v-1.6884h.6619v3.8946zm4.1497-3.3437H83.495v3.3437h-.6653v-3.8946h2.4508v.5509zm-3.9311-9.7606c.0046.4455-.0518.8896-.1678 1.32-.0979.3697-.2643.7181-.4907 1.027-.2084.2801-.4787.5089-.7899.6688-.3106.1596-.6653.2397-1.0633.2397-.4717 0-.8792-.0821-1.2223-.2458-.3335-.1556-.6251-.3878-.8508-.6775v3.267h-.7256v-8.8669h.6769l.0365.9058c.2234-.3199.5063-.5704.8474-.7516.3418-.1818.7479-.27273 1.2197-.27273.402 0 .7607.07743 1.0761.23103.3138.1531.5864.3784.7953.6573.2152.2842.379.6263.4907 1.027.1117.4001.1678.8486.1678 1.347v.1239zm-.7316-.1246c.0022-.3508-.0378-.7006-.1191-1.0419-.0687-.2992-.1904-.5838-.3594-.8405-.1563-.2326-.3667-.4243-.6132-.5589-.2478-.1361-.5381-.2041-.8718-.2041-.2374-.0038-.4738.0301-.7005.1003-.3714.1153-.6954.3468-.9239.66-.1076.1482-.1963.3031-.2653.4647v3.0717c.0772.1617.1739.3118.2897.4499.1157.1381.2518.2579.4088.3583.1557.101.3343.1798.5333.2371.199.0572.4224.0855.6701.0855.3337 0 .6227-.068.8663-.2041.2443-.1367.4522-.3295.6065-.5623.1604-.2391.2802-.5199.3594-.8439.0791-.3232.1191-.6728.1191-1.0472v-.1246zM83.7813 16.5h-.731V7.40816h.731V16.5zm6.1456 0c-.0457-.1315-.0775-.2674-.0948-.4054-.0226-.162-.038-.3249-.046-.4883-.2416.3005-.5478.5432-.8961.7105-.4177.2025-.8769.3057-1.3415.3017-.2971.0036-.5926-.0424-.8744-.136-.2466-.082-.4743-.2118-.6701-.3819-.1826-.1602-.3292-.3568-.4305-.5771-.1028-.2268-.1547-.4732-.1523-.722 0-.3118.0691-.5926.2072-.8439.1453-.2574.3501-.4767.5976-.6397.2599-.1752.576-.3098.9475-.4021.4106-.0971.8316-.1437 1.2535-.1387h1.3537v-.7287c0-.458-.1455-.8183-.4366-1.0803-.291-.2626-.714-.394-1.271-.394-.2559 0-.4914.0337-.7073.1011-.2153.0673-.4014.1596-.5577.2781-.1557.1179-.2782.2552-.3655.4108-.0867.1527-.1319.3251-.1313.5004l-.731-.0061c0-.2404.0609-.4734.1827-.6983.1219-.225.2931-.425.5144-.6008.222-.1751.488-.3165.7987-.4229.3113-.1064.6558-.1603 1.0335-.1603.3499 0 .6721.0438.9665.1306.2944.0869.5476.2169.7587.3907.2119.1737.3764.3906.4941.6512.1178.26.1767.5644.1767.9112v3.102c0 .1105.004.225.0122.3435.0081.1178.0216.2323.0399.3435.0183.1097.0393.2155.0636.3165.0244.1003.0528.1886.0853.2626v.0714h-.7804l.0007.0007zm-2.2924-.5091c.2639 0 .5089-.0324.7343-.0977.2254-.0653.4298-.1549.6126-.2694.1827-.1145.3418-.2472.4758-.3994.1315-.148.2402-.3146.3228-.4943v-1.4089h-1.2494c-.3743 0-.7086.033-1.0031.0977-.2625.053-.5146.148-.7465.2815-.2031.1219-.3587.2714-.467.4465-.1082.1797-.164.3859-.1611.5953-.0009.1674.0343.333.1032.4856.0689.1527.1699.2888.2961.3994.1286.1124.2836.2007.467.266.1828.0653.3872.0977.6153.0977zm6.907-.5092l1.9263-5.3864h.7864l-2.7919 7.4284c-.0568.1461-.1292.3098-.2166.4916-.0879.1818-.201.3509-.3418.5091-.1484.1641-.326.2995-.5238.3994-.2098.1084-.4643.163-.7648.163-.0406 0-.088-.0034-.1408-.0088-.1032-.012-.2059-.0277-.308-.0471-.0377-.0079-.0752-.0168-.1123-.0269l-.0068-.586c.1255.0193.2521.0309.379.0351.1943 0 .3675-.0243.5178-.0741.1503-.0492.2816-.1219.3926-.2189.1182-.1042.2184-.227.2964-.3637.0853-.1461.1624-.3138.2315-.5031l.3167-.8465-2.4873-6.3508h.7987l2.0487 5.3857z" fill="#295091"/><path d="M8.12207 26.1845V8.16447c.00066-.29934.08626-.59242.24695-.84549.16069-.25306.38994-.45583.66136-.58496L19.6282 17.1715 9.02631 27.6122c-.27029-.1294-.49847-.332-.65839-.5845-.15993-.2525-.24513-.5447-.24585-.8432zm14.89023-5.6551l-11.5061 6.4094 9.0743-8.7551 2.4318 2.3457zm3.4661-4.3001c.3614.2949.5949.7603.5949 1.2829 0 .5152-.2261.9745-.5787 1.2702l-2.3087 1.4217-2.5272-2.6946 2.5252-2.6932 2.2945 1.413zM11.5062 7.40817l11.5061 6.40943-2.4312 2.3457-9.0749-8.75513zm39.2561 6.39793c0 1.7443-1.3672 3.0306-3.0457 3.0306-1.6786 0-3.0457-1.2863-3.0457-3.0306 0-1.7577 1.3671-3.0306 3.0457-3.0306 1.6785 0 3.0457 1.2729 3.0457 3.0306zm-1.3333 0c0-1.0903-.7919-1.8365-1.7124-1.8365-.9205 0-1.7124.7462-1.7124 1.8365 0 1.0796.7919 1.8366 1.7124 1.8366.9205 0 1.7124-.7583 1.7124-1.8366zm8.1016 0c0 1.7443-1.3672 3.0306-3.0457 3.0306-1.6786 0-3.0458-1.2863-3.0458-3.0306 0-1.7557 1.3672-3.0306 3.0458-3.0306 1.6785 0 3.0457 1.2729 3.0457 3.0306zm-1.3333 0c0-1.0903-.7919-1.8365-1.7124-1.8365-.9205 0-1.7124.7462-1.7124 1.8365 0 1.0796.7919 1.8366 1.7124 1.8366.9205 0 1.7124-.7583 1.7124-1.8366zm8.1016-2.8481v5.4282c0 2.2325-1.3841 3.1444-3.02 3.1444-1.5398 0-2.4671-.9799-2.8163-1.7813l1.2149-.4815c.2166.4916.7459 1.0728 1.6 1.0728 1.0471 0 1.6962-.6149 1.6962-1.7719v-.4351h-.0488c-.312.3671-.9137.687-1.6731.687-1.5885 0-3.0444-1.3167-3.0444-3.0104 0-1.708 1.4552-3.0347 3.0444-3.0347.7581 0 1.3598.3206 1.6731.6762h.0488V10.96h1.3252v-.002zm-1.2264 2.8515c0-1.0641-.7466-1.8426-1.6961-1.8426-.9625 0-1.7693.7785-1.7693 1.8426 0 1.054.8068 1.8211 1.7693 1.8211.9495 0 1.6961-.7678 1.6961-1.8211zm3.2569-5.72786v8.08166h-1.3537V8.08164h1.3537zm5.0356 6.72326l1.0003.6889c-.3228.493-1.1011 1.3429-2.446 1.3429-1.6677 0-2.9131-1.3307-2.9131-3.0306 0-1.8022 1.2562-3.0306 2.7682-3.0306 1.5243 0 2.2695 1.2513 2.5124 1.9282l.1341.3441-3.9243 1.6776c.3005.6082.7675.9186 1.4227.9186.6565 0 1.112-.3333 1.4457-.8391zm-3.0803-1.0904l2.6234-1.1247c-.1441-.3784-.5787-.6418-1.0897-.6418-.6551 0-1.5668.5967-1.5337 1.7665zm-28.51-1.1024v-1.1968h4.1577c.0406.2088.0616.4546.0616.722 0 .897-.2531 2.0069-1.0687 2.7976-.7926.8014-1.8071 1.2284-3.1493 1.2284-2.488 0-4.5808-1.9652-4.5808-4.3776 0-2.41235 2.0928-4.37753 4.5808-4.37753 1.3767 0 2.3574.52396 3.0945 1.20618l-.8704.84386c-.5286-.48019-1.2447-.85396-2.2254-.85396-1.8166 0-3.238 1.41965-3.238 3.18145 0 1.7618 1.4214 3.1815 3.238 3.1815 1.179 0 1.8504-.4586 2.2802-.8755.3486-.3381.578-.8217.6687-1.4817l-2.9489.0021z" fill="#295091"/></svg>